<svg width="48" height="48" viewBox="0 0 48 48" fill="none" xmlns="http://www.w3.org/2000/svg">
<path d="M3.92906 44.0709H6.81037L35.8199 15.0614L32.9386 12.1801L3.92906 41.1896V44.0709ZM44.1364 12.2456L35.7544 3.86357L38.5048 1.11323C39.2469 0.371078 40.1637 0 41.2551 0C42.3465 0 43.2633 0.371078 44.0055 1.11323L46.8868 3.99454C47.6289 4.7367 48 5.65348 48 6.74488C48 7.83629 47.6289 8.75307 46.8868 9.49523L44.1364 12.2456ZM41.3861 14.9959L8.38199 48H0V39.618L33.0041 6.61391L41.3861 14.9959ZM34.3793 13.6207L32.9386 12.1801L35.8199 15.0614L34.3793 13.6207Z" fill="#799A8E"/>
</svg>
