<svg width="52" height="52" viewBox="0 0 52 52" fill="none" xmlns="http://www.w3.org/2000/svg">
<rect x="1.95923" y="1.95923" width="48" height="48" stroke="#799A8E" stroke-width="3.91837" stroke-linecap="round" stroke-linejoin="round" stroke-dasharray="19.59 19.59"/>
<path d="M36.6806 40.6531C36.593 40.4357 34.4323 35.3568 25.9593 35.3568C17.4873 35.3568 15.3255 40.4357 15.2379 40.652L14.497 40.3537C14.5901 40.1207 16.8518 34.7212 25.5611 34.5604V26.4833H22.6317C18.0541 26.4833 14.4681 22.8974 14.4681 18.3198V14.9922C14.4681 14.7715 14.6467 14.5929 14.8674 14.5929H18.195C21.4837 14.5929 24.26 16.443 25.5633 19.1827C25.6886 14.7227 29.228 11.2654 33.7235 11.2654H37.0511C37.2718 11.2654 37.4504 11.444 37.4504 11.6647V14.9922C37.4504 19.5698 33.8644 23.1558 29.2868 23.1558H26.3586V34.5626C35.0679 34.7235 37.3284 40.1229 37.4215 40.3559L36.6806 40.6531ZM15.2668 15.3915V18.3198C15.2668 22.4493 18.5022 25.6847 22.6317 25.6847H24.9954L19.0224 19.7107L19.587 19.1461L25.5611 25.1191V22.7565C25.5611 18.627 22.3256 15.3915 18.1961 15.3915H15.2668ZM26.9231 22.3572H29.2868C33.4174 22.3572 36.6518 19.1217 36.6518 14.9922V12.064H33.7235C29.5929 12.064 26.3586 15.2995 26.3586 19.429V21.7926L32.3315 15.8197L32.8972 16.3843L26.9231 22.3572Z" fill="#799A8E" stroke="#799A8E" stroke-linecap="round"/>
</svg>
