<svg width="51" height="51" viewBox="0 0 51 51" fill="none" xmlns="http://www.w3.org/2000/svg">
<path d="M14.1828 21.4999C13.7406 22.751 13.5 24.0974 13.5 25.5C13.5 32.1274 18.8726 37.5 25.5 37.5C32.1274 37.5 37.5 32.1274 37.5 25.5C37.5 18.8726 32.1274 13.5 25.5 13.5C24.0974 13.5 22.751 13.7406 21.4999 14.1828" stroke="#799A8E" stroke-width="3" stroke-linecap="round"/>
<path d="M25.5 1.5V6.3" stroke="#799A8E" stroke-width="3" stroke-linecap="round"/>
<path d="M25.5 44.7V49.5" stroke="#799A8E" stroke-width="3" stroke-linecap="round"/>
<path d="M6.3 25.5H1.5" stroke="#799A8E" stroke-width="3" stroke-linecap="round"/>
<path d="M49.5 25.5H44.7" stroke="#799A8E" stroke-width="3" stroke-linecap="round"/>
<path d="M44.1667 6.83435L38.8339 11.7101" stroke="#799A8E" stroke-width="3" stroke-linecap="round"/>
<path d="M6.83321 6.83435L12.166 11.7101" stroke="#799A8E" stroke-width="3" stroke-linecap="round"/>
<path d="M12.1666 38.8336L6.83321 44.1669" stroke="#799A8E" stroke-width="3" stroke-linecap="round"/>
<path d="M44.1667 44.1654L38.8339 38.8322" stroke="#799A8E" stroke-width="3" stroke-linecap="round"/>
</svg>
