<svg width="63" height="48" viewBox="0 0 63 48" fill="none" xmlns="http://www.w3.org/2000/svg">
<path d="M31.2845 13.4995C23.7434 13.4995 17.6081 19.6355 17.6081 27.1766C17.6081 34.7177 23.7434 40.8537 31.2845 40.8537C38.8263 40.8537 44.9623 34.7177 44.9623 27.1766C44.9623 19.6355 38.8263 13.4995 31.2845 13.4995ZM31.2845 37.9439C25.347 37.9439 20.5172 33.1133 20.5172 27.1759C20.5172 21.2384 25.347 16.4079 31.2845 16.4079C37.2219 16.4079 42.0532 21.2384 42.0532 27.1759C42.0532 33.1133 37.2219 37.9439 31.2845 37.9439Z" fill="#799A8E"/>
<path d="M31.3834 18.41C26.4954 18.41 22.5186 22.3868 22.5186 27.274C22.5186 28.0769 23.1703 28.7286 23.9732 28.7286C24.7761 28.7286 25.4277 28.0769 25.4277 27.274C25.4277 23.9904 28.0997 21.3191 31.3834 21.3191C32.1863 21.3191 32.8379 20.6675 32.8379 19.8646C32.8379 19.0617 32.187 18.41 31.3834 18.41Z" fill="#799A8E"/>
<path d="M55.2727 5.81818H53.8182V3.96945C53.8182 1.61964 51.9876 0 49.4662 0H42.9207C40.4262 0 38.5455 1.65673 38.5455 3.96945V5.81818H7.27273C3.26255 5.81818 0 8.99418 0 13.0044V40.6407C0 44.6509 3.26255 48 7.27273 48H55.2727C59.2829 48 62.5455 44.6509 62.5455 40.6407V13.0044C62.5455 8.99418 59.2829 5.81818 55.2727 5.81818ZM41.4545 3.96945C41.4545 2.85455 42.7702 2.90909 42.9207 2.90909H49.4662C49.7076 2.90909 50.9091 2.87782 50.9091 3.96945V5.81818H41.4545V3.96945ZM59.6364 40.7273C59.6364 43.1367 57.6822 45.0909 55.2727 45.0909H7.27273C4.86327 45.0909 2.90909 43.1367 2.90909 40.7273V13.0909C2.90909 10.6815 4.86327 8.72727 7.27273 8.72727H55.2727C57.6822 8.72727 59.6364 10.6815 59.6364 13.0909V40.7273Z" fill="#799A8E"/>
</svg>
