<svg width="55" height="51" viewBox="0 0 55 51" fill="none" xmlns="http://www.w3.org/2000/svg">
<path d="M52.9192 6.66156V37.6932C52.9192 40.1614 50.9139 42.475 48.4458 42.7835L47.5974 42.8866C41.9927 43.6322 33.3542 46.4857 28.418 49.2109C27.7495 49.5965 26.644 49.5965 25.9499 49.2109L25.847 49.1597C20.9107 46.4602 12.2981 43.6322 6.71913 42.8866L5.97345 42.7835C3.50533 42.475 1.5 40.1614 1.5 37.6932V6.63583C1.5 3.57638 3.99376 1.26254 7.0532 1.51964C12.4522 1.9567 20.6279 4.682 25.2043 7.53577L25.847 7.92131C26.5926 8.38411 27.8267 8.38411 28.5722 7.92131L29.0093 7.63856C30.629 6.63588 32.6858 5.63318 34.9225 4.73334V15.2229L40.0644 11.8035L45.2064 15.2229V1.80257C45.9005 1.67403 46.569 1.59679 47.186 1.54537H47.3403C50.3997 1.28828 52.9192 3.57641 52.9192 6.66156Z" stroke="#799A8E" stroke-width="3" stroke-linecap="round" stroke-linejoin="round"/>
<path d="M27.2096 8.7699V47.3344" stroke="#799A8E" stroke-width="3" stroke-linecap="round" stroke-linejoin="round"/>
<path d="M45.2063 1.80261V15.223L40.0644 11.8035L34.9225 15.223V4.73338C38.2904 3.39648 42.0441 2.3168 45.2063 1.80261Z" stroke="#799A8E" stroke-width="3" stroke-linecap="round" stroke-linejoin="round"/>
</svg>
