<svg width="51" height="53" viewBox="0 0 51 53" fill="none" xmlns="http://www.w3.org/2000/svg">
<path d="M25.5 50.0272C38.7548 50.0272 49.5 39.2821 49.5 26.0272C49.5 12.7724 38.7548 2.02722 25.5 2.02722C12.2452 2.02722 1.5 12.7724 1.5 26.0272C1.5 39.2821 12.2452 50.0272 25.5 50.0272Z" stroke="#799A8E" stroke-width="3" stroke-linecap="square"/>
<path d="M25.5 50.0272C31.9 44.209 35.1 36.209 35.1 26.0272C35.1 15.8454 31.9 7.8454 25.5 2.02722C19.1 7.8454 15.9 15.8454 15.9 26.0272C15.9 36.209 19.1 44.209 25.5 50.0272Z" stroke="#799A8E" stroke-width="3" stroke-linecap="round"/>
<path d="M2.70001 18.8273H48.3M2.70001 33.2273H48.3" stroke="#799A8E" stroke-width="3" stroke-linecap="round"/>
</svg>
