<svg width="30" height="35" viewBox="0 0 30 35" fill="none" xmlns="http://www.w3.org/2000/svg">
<path d="M28.5326 30.4348C29.1629 30.4348 29.6739 29.9238 29.6739 29.2934V3.42392C29.6738 1.53597 28.1379 0 26.25 0C25.4119 0 4.43399 0 3.42392 0C1.53597 0 0 1.53597 0 3.42392V31.5761C0 33.464 1.53597 35 3.42392 35H28.5326C29.1629 35 29.6739 34.489 29.6739 33.8587C29.6739 33.2283 29.1629 32.7173 28.5326 32.7173C27.9033 32.7173 27.3913 32.2053 27.3913 31.576C27.3913 30.9467 27.9033 30.4348 28.5326 30.4348ZM2.28259 3.42392C2.28259 2.7946 2.7946 2.28259 3.42392 2.28259H4.56524V28.1522H3.42392C3.02388 28.1522 2.63983 28.2218 2.28259 28.3485V3.42392ZM25.3042 32.7174H3.42392C2.7946 32.7174 2.28259 32.2054 2.28259 31.5761C2.28259 30.9468 2.7946 30.4348 3.42392 30.4348C4.34205 30.4348 24.3881 30.4348 25.3042 30.4348C25.1776 30.7919 25.1087 31.176 25.1087 31.5761C25.1087 31.9761 25.1776 32.3603 25.3042 32.7174ZM27.3913 28.1522H6.84776V2.28259H26.2499C26.8792 2.28259 27.3913 2.7946 27.3913 3.42392V28.1522Z" fill="#799A8E"/>
<path d="M23.9674 7.60864H19.4022C14.997 7.60864 11.413 11.1926 11.413 15.5978V19.6903L9.08428 22.019C8.63857 22.4647 8.63857 23.1873 9.08428 23.633C9.52984 24.0787 10.2526 24.0788 10.6982 23.633L13.027 21.3043H17.1195C21.5247 21.3043 25.1087 17.7204 25.1087 13.3151V8.74997C25.1087 8.1197 24.5978 7.60864 23.9674 7.60864ZM22.8262 13.3152C22.8262 16.4618 20.2662 19.0217 17.1196 19.0217H15.3098L20.2093 14.1222C20.655 13.6765 20.655 12.9539 20.2093 12.5082C19.7637 12.0625 19.041 12.0625 18.5953 12.5082L13.6957 17.4077V15.5978C13.6957 12.4512 16.2557 9.8913 19.4022 9.8913H22.8262V13.3152Z" fill="#799A8E"/>
</svg>
