<svg width="56" height="53" viewBox="0 0 56 53" fill="none" xmlns="http://www.w3.org/2000/svg">
<path d="M3.94531 2.5L51.9453 50.5M22.1967 20.9364C20.803 22.3763 19.9453 24.3379 19.9453 26.5C19.9453 30.9184 23.5271 34.5 27.9453 34.5C30.1386 34.5 32.1258 33.6173 33.5709 32.188M13.2786 12.2257C8.21384 15.5676 4.35605 20.5905 2.5 26.5C5.898 37.3189 16.0055 45.1667 27.9458 45.1667C33.2495 45.1667 38.1917 43.6184 42.3447 40.9491M25.2786 7.96504C26.1559 7.87795 27.0458 7.83333 27.9458 7.83333C39.8863 7.83333 49.9938 15.6811 53.3917 26.5C52.6431 28.884 51.5685 31.1235 50.2205 33.1667" stroke="#799A8E" stroke-width="5" stroke-linecap="round" stroke-linejoin="round"/>
</svg>
