<svg width="30" height="50" viewBox="0 0 30 50" fill="none" xmlns="http://www.w3.org/2000/svg">
<path d="M14.5991 0.5C19.733 0.5 23.896 4.66176 23.896 9.7959V25.792C23.8958 30.9274 19.733 35.0889 14.5991 35.0889C9.46533 35.0887 5.30246 30.9258 5.30225 25.792V9.7959C5.30225 4.66184 9.46532 0.500131 14.5991 0.5ZM14.5991 3.10156C10.9061 3.10169 7.90199 6.10548 7.90186 9.79688V25.793C7.90186 29.486 10.9061 32.4901 14.5991 32.4902C18.2923 32.4902 21.2964 29.4861 21.2964 25.793V9.79688C21.2963 6.1054 18.2923 3.10156 14.5991 3.10156Z" fill="#799A8E" stroke="#799A8E"/>
<path d="M3.09961 17.2942V25.7913C3.09961 32.1291 8.25693 37.2863 14.5947 37.2864C20.9326 37.2864 26.0898 32.1291 26.0898 25.7913V17.2942H28.6895V25.7913C28.6895 33.1224 23.0585 39.1442 15.8975 39.8059V46.8997H23.0908V49.5002H6.09766V46.8997H13.2998V39.8069C6.13507 39.1501 0.5 33.1264 0.5 25.7913V17.2942H3.09961Z" fill="#799A8E" stroke="#799A8E"/>
</svg>
