<svg width="48" height="48" viewBox="0 0 48 48" fill="none" xmlns="http://www.w3.org/2000/svg">
<path d="M47.2191 0.780933C46.178 -0.260311 44.4897 -0.260311 43.4485 0.780933L24 20.2295L4.55155 0.780933C3.51033 -0.260311 1.82215 -0.260311 0.780933 0.780933C-0.260311 1.82215 -0.260311 3.51033 0.780933 4.55155L20.2294 24.0001L0.780986 43.4484C-0.260258 44.4898 -0.260258 46.1778 0.780986 47.2192C1.8222 48.2604 3.51038 48.2604 4.5516 47.2192L24 27.7706L43.4485 47.2192C44.4897 48.2604 46.178 48.2604 47.2191 47.2192C48.2603 46.1778 48.2603 44.4898 47.2191 43.4486L27.7706 24.0001L47.2191 4.55155C48.2603 3.51033 48.2603 1.82215 47.2191 0.780933Z" fill="#799A8E"/>
</svg>
