<svg width="30" height="35" viewBox="0 0 30 35" fill="none" xmlns="http://www.w3.org/2000/svg">
<path d="M28.5326 30.4348C29.1629 30.4348 29.6739 29.9238 29.6739 29.2934V3.42392C29.6738 1.53597 28.1379 0 26.25 0C25.4119 0 4.43399 0 3.42392 0C1.53597 0 0 1.53597 0 3.42392V31.5761C0 33.464 1.53597 35 3.42392 35H28.5326C29.1629 35 29.6739 34.489 29.6739 33.8587C29.6739 33.2283 29.1629 32.7173 28.5326 32.7173C27.9033 32.7173 27.3913 32.2053 27.3913 31.576C27.3913 30.9467 27.9033 30.4348 28.5326 30.4348ZM2.28259 3.42392C2.28259 2.7946 2.7946 2.28259 3.42392 2.28259H4.56524V28.1522H3.42392C3.02388 28.1522 2.63983 28.2218 2.28259 28.3485V3.42392ZM25.3042 32.7174H3.42392C2.7946 32.7174 2.28259 32.2054 2.28259 31.5761C2.28259 30.9468 2.7946 30.4348 3.42392 30.4348C4.34205 30.4348 24.3881 30.4348 25.3042 30.4348C25.1776 30.7919 25.1087 31.176 25.1087 31.5761C25.1087 31.9761 25.1776 32.3603 25.3042 32.7174ZM27.3913 28.1522H6.84776V2.28259H26.2499C26.8792 2.28259 27.3913 2.7946 27.3913 3.42392V28.1522Z" fill="#799A8E"/>
<path d="M12.9863 21.6521L17.3184 19.832L21.5801 21.6521V9.99988H12.9863V21.6521ZM11.0001 24.36V9.35393C11.0001 8.99288 11.1355 8.67697 11.4062 8.40618C11.677 8.13539 11.993 8 12.354 8H22.2828C22.6439 8 22.9598 8.13539 23.2306 8.40618C23.5014 8.67697 23.6368 8.99288 23.6368 9.35393V24.36L17.3184 21.6521L11.0001 24.36Z" fill="#799A8E"/>
</svg>
