<svg width="34" height="48" viewBox="0 0 34 48" fill="none" xmlns="http://www.w3.org/2000/svg">
<path d="M18.7314 7.63141C18.7314 -2.54218 3.256 -2.54543 3.25763 7.63141V29.1937C1.24604 31.1874 0 33.9515 0 37.0055C0 43.0777 4.92228 48 10.9945 48C17.0667 48 21.989 43.0777 21.989 37.0055C21.989 33.9515 20.743 31.1874 18.7314 29.1937V7.63141ZM10.9945 45.4884C6.27094 45.4884 2.44322 41.659 2.44322 36.9355C2.44322 34.4059 3.54105 32.1337 5.28551 30.5684L5.29365 30.5619L5.30343 30.5423C5.51517 30.3436 5.65362 30.07 5.67968 29.7654V29.7605C5.68131 29.7377 5.69108 29.7214 5.69271 29.6986L5.70249 29.6514V7.62978C5.6976 7.54346 5.69434 7.44247 5.69434 7.33985C5.69434 4.56435 7.94374 2.31496 10.7192 2.31496C10.817 2.31496 10.9147 2.31821 11.0108 2.3231H10.9978C11.0808 2.31821 11.1769 2.31496 11.2747 2.31496C14.0502 2.31496 16.2996 4.56435 16.2996 7.33985C16.2996 7.44247 16.2963 7.54346 16.2898 7.64281V7.62978V29.6514L16.2996 29.6986L16.311 29.7573C16.3354 30.0684 16.4755 30.3436 16.6872 30.5423L16.697 30.5619C18.4496 32.1353 19.5474 34.4075 19.5474 36.9355C19.5474 41.659 15.7181 45.4867 10.9945 45.4884ZM12.2161 32.6484V7.61838C12.2161 6.94405 11.6688 6.39677 10.9945 6.39677C10.3202 6.39677 9.7729 6.94405 9.7729 7.61838V32.6484C7.87696 33.1989 6.51527 34.919 6.51527 36.9583C6.51527 39.4324 8.52034 41.4375 10.9945 41.4375C13.4687 41.4375 15.4738 39.4324 15.4738 36.9583C15.4738 34.919 14.1121 33.1989 12.2471 32.6565L12.2161 32.6484ZM28.0971 1.51032C25.1734 1.51032 22.8034 3.88025 22.8034 6.80397C22.8034 9.7277 25.1734 12.0976 28.0971 12.0976C31.0208 12.0976 33.3907 9.7277 33.3907 6.80397C33.3875 3.88188 31.0192 1.51358 28.0971 1.51032ZM28.0971 9.6544C26.5236 9.6544 25.2467 8.37741 25.2467 6.80397C25.2467 5.23054 26.5236 3.95355 28.0971 3.95355C29.6705 3.95355 30.9475 5.23054 30.9475 6.80397C30.9459 8.37741 29.6705 9.65277 28.0971 9.6544Z" fill="#799A8E"/>
</svg>
