<svg width="39" height="48" viewBox="0 0 39 48" fill="none" xmlns="http://www.w3.org/2000/svg">
<path d="M33 18H31.5V12.276C31.5 5.3925 26.52 0 19.4445 0C12.3405 0 7.5 5.5065 7.5 12.276V18H6C2.691 18 0 20.691 0 24V42C0 45.309 2.691 48 6 48H33C36.309 48 39 45.309 39 42V24C39 20.691 36.309 18 33 18ZM10.5 12.276C10.5 7.1625 13.995 3 19.4445 3C24.8385 3 28.5 7.074 28.5 12.276V18H10.5V12.276ZM36 42C36 43.653 34.653 45 33 45H6C4.3455 45 3 43.653 3 42V24C3 22.347 4.3455 21 6 21H33C34.653 21 36 22.347 36 24V42ZM19.5 27C17.844 27 16.5 28.3425 16.5 30C16.5 31.107 17.1075 32.064 18 32.5845V37.5C18 38.328 18.672 39 19.5 39C20.328 39 21 38.328 21 37.5V32.5845C21.8925 32.0655 22.5 31.107 22.5 30C22.5 28.3425 21.1575 27 19.5 27Z" fill="#799A8E"/>
</svg>
