<svg width="48" height="48" viewBox="0 0 48 48" fill="none" xmlns="http://www.w3.org/2000/svg">
<path d="M16.695 10.335L17.7 6.00005H29.7L26.7 19.5H34.5L30.765 24.375L32.91 26.52L38.715 18.915C38.8726 18.7019 38.9709 18.4508 38.9999 18.1873C39.0289 17.9238 38.9875 17.6574 38.88 17.415C38.7652 17.1439 38.5731 16.9126 38.3277 16.7499C38.0823 16.5872 37.7944 16.5003 37.5 16.5H30.375L33 4.83005C33.0497 4.60868 33.0485 4.37892 32.9965 4.15807C32.9446 3.93723 32.8432 3.73104 32.7 3.55505C32.5557 3.37701 32.3725 3.23441 32.1644 3.1382C31.9564 3.042 31.7291 2.99473 31.5 3.00005H16.5C16.1553 2.99083 15.818 3.10065 15.5448 3.31102C15.2716 3.52138 15.0792 3.81945 15 4.15505L14.19 7.83005L16.695 10.335Z" fill="#799A8E"/>
<path d="M45 42.885L31.035 28.92L28.905 26.775L15.9 13.785L13.395 11.28L5.115 3L3 5.115L12.6 14.73L10.5 23.655C10.4471 23.8786 10.4462 24.1114 10.4975 24.3353C10.5488 24.5593 10.6508 24.7685 10.7958 24.9468C10.9407 25.1251 11.1247 25.2677 11.3335 25.3636C11.5423 25.4595 11.7703 25.5062 12 25.5H19.245L16.5 43.275C16.4504 43.6045 16.512 43.9411 16.675 44.2317C16.8379 44.5223 17.093 44.7504 17.4 44.88C17.5907 44.9574 17.7942 44.9981 18 45C18.2291 44.9995 18.455 44.9464 18.6604 44.845C18.8658 44.7436 19.0453 44.5965 19.185 44.415L29.205 31.32L42.885 45L45 42.885ZM13.89 22.5L15.105 17.22L20.385 22.5H13.89ZM20.37 37.92L22.5 24.555L27 29.175L20.37 37.92Z" fill="#799A8E"/>
</svg>
