<svg width="38" height="48" viewBox="0 0 38 48" fill="none" xmlns="http://www.w3.org/2000/svg">
<path d="M9.46094 25.5C10.1472 25.5002 10.7031 26.0568 10.7031 26.7432C10.7032 30.0386 11.3682 32.8066 12.8457 34.7275C14.2762 36.5873 16.6164 37.8427 20.4316 37.8428C21.1181 37.8428 21.6748 38.3995 21.6748 39.0859C21.6747 39.7723 21.118 40.3281 20.4316 40.3281C16.014 40.328 12.8714 38.8372 10.876 36.2432C8.92559 33.7077 8.21781 30.3056 8.21777 26.7432C8.21777 26.0567 8.7745 25.5 9.46094 25.5Z" stroke="#799A8E" stroke-width="3"/>
<path fill-rule="evenodd" clip-rule="evenodd" d="M21.6112 1.35431C19.9319 -0.451494 17.0952 -0.451423 15.4162 1.35444C13.3621 3.5636 9.57111 7.8495 6.28012 12.7371C2.9963 17.614 -0.0529126 23.1684 0.000696536 29.2016C0.00541971 29.7353 0.0338461 30.4842 0.126982 31.3776C0.311969 33.1524 0.758777 35.5611 1.82783 38.0019C2.90158 40.4534 4.62488 42.9833 7.37401 44.8933C10.1356 46.8122 13.7814 48 18.5137 48C23.246 48 26.8918 46.8122 29.6536 44.8933C32.4026 42.9833 34.1263 40.4536 35.2002 38.0021C36.2693 35.5613 36.7164 33.1524 36.9014 31.3776C36.9946 30.4844 37.0231 29.7355 37.0279 29.2018C37.0818 23.1686 34.0318 17.6137 30.748 12.7369C27.4566 7.84935 23.6654 3.56345 21.6112 1.35431ZM9.8924 15.1633C12.9548 10.6152 16.5112 6.57239 18.5137 4.41242C20.5163 6.57236 24.0731 10.6152 27.1357 15.1633C29.9089 19.2815 32.7206 24.0449 32.6749 29.1629C32.6712 29.5803 32.6486 30.1903 32.5718 30.9272C32.4168 32.4133 32.0474 34.3524 31.212 36.2593C30.3812 38.1556 29.1119 39.9736 27.1675 41.3242C25.236 42.6664 22.4879 43.6522 18.5137 43.6522C14.5395 43.6522 11.7915 42.6664 9.85997 41.3242C7.91593 39.9736 6.64662 38.1556 5.81608 36.2593C4.98082 34.3524 4.61163 32.4135 4.45672 30.9274C4.37991 30.1903 4.35738 29.5805 4.35368 29.1631C4.30823 24.0451 7.11926 19.2818 9.8924 15.1633Z" fill="#799A8E"/>
</svg>
