<svg width="43" height="51" viewBox="0 0 43 51" fill="none" xmlns="http://www.w3.org/2000/svg">
<path d="M26.615 36.1667H39.9484V49.5M15.9483 14.8333H2.61501V1.5M41.062 17.5091C39.5668 13.8084 37.0633 10.6014 33.8364 8.25261C30.6094 5.90376 26.7889 4.50672 22.8078 4.22136C18.8267 3.936 14.8445 4.77307 11.3155 6.63763C7.78656 8.50219 4.85187 11.3201 2.84419 14.7697M1.50043 33.4923C2.9956 37.1928 5.49891 40.3997 8.72587 42.7485C11.9529 45.0976 15.7774 46.4928 19.7585 46.7781C23.7395 47.0635 27.7185 46.2267 31.2473 44.3619C34.7763 42.4973 37.7091 39.68 39.7166 36.2304" stroke="#799A8E" stroke-width="3" stroke-linecap="round" stroke-linejoin="round"/>
</svg>
