<svg width="38" height="37" viewBox="0 0 38 37" fill="none" xmlns="http://www.w3.org/2000/svg">
<path d="M18.75 17.5781C16.1719 17.5781 14.0625 16.7578 12.4219 15.1172C10.7812 13.4766 9.96094 11.3672 9.96094 8.78906C9.96094 6.21094 10.7812 4.10156 12.4219 2.46094C14.0625 0.820313 16.1719 0 18.75 0C21.3281 0 23.4375 0.820313 25.0781 2.46094C26.7188 4.10156 27.5391 6.21094 27.5391 8.78906C27.5391 11.3672 26.7188 13.4766 25.0781 15.1172C23.4375 16.7578 21.3281 17.5781 18.75 17.5781ZM0 36.3867V30.8789C0 29.3945 0.371094 28.125 1.11328 27.0703C1.85547 26.0156 2.8125 25.2148 3.98437 24.668C6.60156 23.4961 9.11133 22.6172 11.5137 22.0312C13.916 21.4453 16.3281 21.1523 18.75 21.1523C21.1719 21.1523 23.5742 21.4551 25.957 22.0605C28.3398 22.666 30.8398 23.5352 33.457 24.668C34.668 25.2148 35.6445 26.0156 36.3867 27.0703C37.1289 28.125 37.5 29.3945 37.5 30.8789V36.3867H0ZM3.51562 32.8711H33.9844V30.8789C33.9844 30.2539 33.7988 29.6582 33.4277 29.0918C33.0566 28.5254 32.5977 28.1055 32.0508 27.832C29.5508 26.6211 27.2656 25.791 25.1953 25.3418C23.125 24.8926 20.9766 24.668 18.75 24.668C16.5234 24.668 14.3555 24.8926 12.2461 25.3418C10.1367 25.791 7.85156 26.6211 5.39063 27.832C4.84375 28.1055 4.39453 28.5254 4.04297 29.0918C3.69141 29.6582 3.51562 30.2539 3.51562 30.8789V32.8711ZM18.75 14.0625C20.2734 14.0625 21.5332 13.5645 22.5293 12.5684C23.5254 11.5723 24.0234 10.3125 24.0234 8.78906C24.0234 7.26563 23.5254 6.00586 22.5293 5.00977C21.5332 4.01367 20.2734 3.51562 18.75 3.51562C17.2266 3.51562 15.9668 4.01367 14.9707 5.00977C13.9746 6.00586 13.4766 7.26563 13.4766 8.78906C13.4766 10.3125 13.9746 11.5723 14.9707 12.5684C15.9668 13.5645 17.2266 14.0625 18.75 14.0625Z" fill="#FFF5F1"/>
</svg>
