<svg width="37" height="48" viewBox="0 0 37 48" fill="none" xmlns="http://www.w3.org/2000/svg">
<path d="M31.9375 0.5H36.4795V5.04297C36.4739 9.81234 34.5766 14.3844 31.2041 17.7568C27.8314 21.1295 23.259 23.0268 18.4893 23.0322H16.3086V39.2178L16.7598 39.2627C19.152 39.499 21.4623 40.2617 23.5244 41.4971C25.4431 42.6466 27.1019 44.1792 28.4004 45.9961L26.4375 47.3115C25.331 45.7775 23.9241 44.4822 22.2988 43.5078C20.53 42.4474 18.5475 41.7922 16.4951 41.5898C14.4428 41.3876 12.3714 41.6433 10.4297 42.3379C8.64504 42.9763 7.01097 43.9709 5.62598 45.2598L3.9541 43.5879C6.56047 41.1232 9.91658 39.5912 13.4961 39.2412L13.9473 39.1973V23.0322H11.7666L11.208 23.0186C8.42444 22.8775 5.78384 21.7086 3.80371 19.7285C1.82361 17.7483 0.655653 15.1078 0.514648 12.3242L0.5 11.7656V7.22363H5.04199L5.38379 7.22852C7.08865 7.28106 8.76094 7.72076 10.2734 8.51562C11.8867 9.36347 13.2703 10.5903 14.3047 12.0908L14.8408 12.8682L15.1826 11.9883C16.4948 8.60947 18.7957 5.70495 21.7852 3.65527C24.5879 1.73364 27.8733 0.646861 31.2598 0.513672L31.9375 0.5ZM2.86133 11.7666L2.87305 12.208C2.98448 14.4079 3.90781 16.4946 5.47266 18.0596C7.14186 19.7288 9.40501 20.6682 11.7656 20.6709H13.9473V18.4893C13.9447 16.1287 13.006 13.8655 11.3369 12.1963C9.66765 10.527 7.40366 9.58751 5.04297 9.58496H2.86133V11.7666ZM31.9365 2.86133C27.7933 2.86592 23.8213 4.51464 20.8916 7.44434C17.9619 10.3741 16.3132 14.346 16.3086 18.4893V20.6709H18.4902C22.6335 20.6663 26.6064 19.0186 29.5361 16.0889C32.4658 13.1591 34.1136 9.18621 34.1182 5.04297V2.86133H31.9365Z" fill="#799A8E" stroke="#799A8E"/>
</svg>
