<svg width="50" height="48" viewBox="0 0 50 48" fill="none" xmlns="http://www.w3.org/2000/svg">
<path d="M24.7343 23.1884C21.3333 23.1884 18.5507 22.1063 16.3865 19.942C14.2222 17.7778 13.1401 14.9952 13.1401 11.5942C13.1401 8.19324 14.2222 5.41063 16.3865 3.24638C18.5507 1.08213 21.3333 0 24.7343 0C28.1353 0 30.9179 1.08213 33.0821 3.24638C35.2464 5.41063 36.3285 8.19324 36.3285 11.5942C36.3285 14.9952 35.2464 17.7778 33.0821 19.942C30.9179 22.1063 28.1353 23.1884 24.7343 23.1884ZM0 48V40.7343C0 38.7762 0.489533 37.1014 1.4686 35.7101C2.44766 34.3188 3.71014 33.2625 5.25604 32.5411C8.70853 30.9952 12.0193 29.8357 15.1884 29.0628C18.3575 28.2899 21.5395 27.9034 24.7343 27.9034C27.9291 27.9034 31.0982 28.3027 34.2415 29.1015C37.3849 29.9002 40.6828 31.0467 44.1353 32.5411C45.7327 33.2625 47.0209 34.3188 48 35.7101C48.9791 37.1014 49.4686 38.7762 49.4686 40.7343V48H0ZM4.63768 43.3623H44.8309V40.7343C44.8309 39.9098 44.5862 39.124 44.0966 38.3768C43.6071 37.6296 43.0016 37.0757 42.2802 36.715C38.9823 35.1176 35.9678 34.0225 33.2367 33.43C30.5056 32.8374 27.6715 32.5411 24.7343 32.5411C21.7971 32.5411 18.9372 32.8374 16.1546 33.43C13.372 34.0225 10.3575 35.1176 7.11111 36.715C6.38969 37.0757 5.7971 37.6296 5.33333 38.3768C4.86957 39.124 4.63768 39.9098 4.63768 40.7343V43.3623ZM24.7343 18.5507C26.744 18.5507 28.4058 17.8937 29.7198 16.5797C31.0338 15.2657 31.6908 13.6039 31.6908 11.5942C31.6908 9.58454 31.0338 7.92271 29.7198 6.6087C28.4058 5.29469 26.744 4.63768 24.7343 4.63768C22.7246 4.63768 21.0628 5.29469 19.7488 6.6087C18.4348 7.92271 17.7778 9.58454 17.7778 11.5942C17.7778 13.6039 18.4348 15.2657 19.7488 16.5797C21.0628 17.8937 22.7246 18.5507 24.7343 18.5507Z" fill="#799A8E"/>
</svg>
