<svg width="48" height="48" viewBox="0 0 48 48" fill="none" xmlns="http://www.w3.org/2000/svg">
<path d="M24.24 37.98C24.88 37.98 25.42 37.76 25.86 37.32C26.3 36.88 26.52 36.34 26.52 35.7C26.52 35.06 26.3 34.52 25.86 34.08C25.42 33.64 24.88 33.42 24.24 33.42C23.6 33.42 23.06 33.64 22.62 34.08C22.18 34.52 21.96 35.06 21.96 35.7C21.96 36.34 22.18 36.88 22.62 37.32C23.06 37.76 23.6 37.98 24.24 37.98ZM22.14 29.22H25.68C25.68 28.18 25.81 27.23 26.07 26.37C26.33 25.51 27.14 24.52 28.5 23.4C29.74 22.36 30.62 21.34 31.14 20.34C31.66 19.34 31.92 18.24 31.92 17.04C31.92 14.92 31.23 13.22 29.85 11.94C28.47 10.66 26.64 10.02 24.36 10.02C22.4 10.02 20.67 10.51 19.17 11.49C17.67 12.47 16.58 13.82 15.9 15.54L19.08 16.74C19.52 15.62 20.18 14.75 21.06 14.13C21.94 13.51 22.98 13.2 24.18 13.2C25.54 13.2 26.64 13.57 27.48 14.31C28.32 15.05 28.74 16 28.74 17.16C28.74 18.04 28.48 18.87 27.96 19.65C27.44 20.43 26.68 21.24 25.68 22.08C24.48 23.12 23.59 24.15 23.01 25.17C22.43 26.19 22.14 27.54 22.14 29.22ZM24 48C20.72 48 17.62 47.37 14.7 46.11C11.78 44.85 9.23 43.13 7.05 40.95C4.87 38.77 3.15 36.22 1.89 33.3C0.63 30.38 0 27.28 0 24C0 20.68 0.63 17.56 1.89 14.64C3.15 11.72 4.87 9.18 7.05 7.02C9.23 4.86 11.78 3.15 14.7 1.89C17.62 0.63 20.72 0 24 0C27.32 0 30.44 0.63 33.36 1.89C36.28 3.15 38.82 4.86 40.98 7.02C43.14 9.18 44.85 11.72 46.11 14.64C47.37 17.56 48 20.68 48 24C48 27.28 47.37 30.38 46.11 33.3C44.85 36.22 43.14 38.77 40.98 40.95C38.82 43.13 36.28 44.85 33.36 46.11C30.44 47.37 27.32 48 24 48ZM24 44.4C29.68 44.4 34.5 42.41 38.46 38.43C42.42 34.45 44.4 29.64 44.4 24C44.4 18.32 42.42 13.5 38.46 9.54C34.5 5.58 29.68 3.6 24 3.6C18.36 3.6 13.55 5.58 9.57 9.54C5.59 13.5 3.6 18.32 3.6 24C3.6 29.64 5.59 34.45 9.57 38.43C13.55 42.41 18.36 44.4 24 44.4Z" fill="#799A8E"/>
</svg>
