<svg width="46" height="48" viewBox="0 0 46 48" fill="none" xmlns="http://www.w3.org/2000/svg">
<path d="M3.36301 45.7143C2.46621 45.7143 1.68151 45.3714 1.0089 44.6857C0.336301 44 0 43.2 0 42.2857V6.85714C0 5.94286 0.336301 5.14286 1.0089 4.45714C1.68151 3.77143 2.46621 3.42857 3.36301 3.42857H7.00628V0H10.6495V3.42857H29.7066V0H33.3499V3.42857H36.9931C37.8899 3.42857 38.6746 3.77143 39.3472 4.45714C40.0198 5.14286 40.3562 5.94286 40.3562 6.85714V24.0571H36.9931V17.7143H3.36301V42.2857H21.243V45.7143H3.36301ZM43.1026 33.2L39.1231 29.1429L40.7485 27.4857C41.0474 27.181 41.4398 27.0286 41.9256 27.0286C42.4113 27.0286 42.8037 27.181 43.1026 27.4857L44.7281 29.1429C45.027 29.4476 45.1765 29.8476 45.1765 30.3429C45.1765 30.8381 45.027 31.2381 44.7281 31.5429L43.1026 33.2ZM24.606 48V43.9429L36.7129 31.6L40.6925 35.6571L28.5856 48H24.606ZM3.36301 14.2857H36.9931V6.85714H3.36301V14.2857Z" fill="#799A8E"/>
</svg>
