<svg width="39" height="48" viewBox="0 0 39 48" fill="none" xmlns="http://www.w3.org/2000/svg">
<path d="M0 40.8V37.2H5.04V18.84C5.04 15.48 6.03 12.49 8.01 9.87C9.99 7.25 12.6 5.6 15.84 4.92V3.18C15.84 2.26 16.17 1.5 16.83 0.9C17.49 0.3 18.28 0 19.2 0C20.12 0 20.91 0.3 21.57 0.9C22.23 1.5 22.56 2.26 22.56 3.18V4.92C25.8 5.6 28.42 7.25 30.42 9.87C32.42 12.49 33.42 15.48 33.42 18.84V37.2H38.4V40.8H0ZM19.2 48C17.92 48 16.8 47.53 15.84 46.59C14.88 45.65 14.4 44.52 14.4 43.2H24C24 44.52 23.53 45.65 22.59 46.59C21.65 47.53 20.52 48 19.2 48ZM8.64 37.2H29.82V18.84C29.82 15.88 28.8 13.36 26.76 11.28C24.72 9.2 22.22 8.16 19.26 8.16C16.3 8.16 13.79 9.2 11.73 11.28C9.67 13.36 8.64 15.88 8.64 18.84V37.2Z" fill="#799A8E"/>
</svg>
